<svg width="55" height="13" viewBox="0 0 55 13" fill="none" xmlns="http://www.w3.org/2000/svg">
<path d="M4.9745 12.692C4.15317 12.692 3.42783 12.5533 2.7985 12.276C2.16917 11.988 1.67317 11.5827 1.3105 11.06C0.947833 10.5267 0.761167 9.88133 0.7505 9.124H2.9105C2.93183 9.64667 3.1185 10.0893 3.4705 10.452C3.83317 10.804 4.32917 10.98 4.9585 10.98C5.5025 10.98 5.9345 10.852 6.2545 10.596C6.5745 10.3293 6.7345 9.97733 6.7345 9.54C6.7345 9.08133 6.5905 8.724 6.3025 8.468C6.02517 8.212 5.65183 8.004 5.1825 7.844C4.71317 7.684 4.21183 7.51333 3.6785 7.332C2.8145 7.03333 2.15317 6.64933 1.6945 6.18C1.2465 5.71067 1.0225 5.08667 1.0225 4.308C1.01183 3.64667 1.1665 3.08133 1.4865 2.612C1.81717 2.132 2.26517 1.764 2.8305 1.508C3.39583 1.24133 4.0465 1.108 4.7825 1.108C5.52917 1.108 6.18517 1.24133 6.7505 1.508C7.3265 1.77467 7.7745 2.148 8.0945 2.628C8.42517 3.108 8.60117 3.67867 8.6225 4.34H6.4305C6.41983 3.94533 6.26517 3.59867 5.9665 3.3C5.6785 2.99067 5.27317 2.836 4.7505 2.836C4.3025 2.82533 3.92383 2.93733 3.6145 3.172C3.31583 3.396 3.1665 3.72667 3.1665 4.164C3.1665 4.53733 3.28383 4.836 3.5185 5.06C3.75317 5.27333 4.07317 5.45467 4.4785 5.604C4.88383 5.75333 5.34783 5.91333 5.8705 6.084C6.42517 6.276 6.93183 6.5 7.3905 6.756C7.84917 7.012 8.21717 7.35333 8.4945 7.78C8.77183 8.196 8.9105 8.73467 8.9105 9.396C8.9105 9.98267 8.76117 10.5267 8.4625 11.028C8.16383 11.5293 7.72117 11.9347 7.1345 12.244C6.54783 12.5427 5.82783 12.692 4.9745 12.692ZM14.7054 12.692C13.9054 12.692 13.196 12.5213 12.5774 12.18C11.9587 11.8387 11.4734 11.3587 11.1214 10.74C10.7694 10.1213 10.5934 9.40667 10.5934 8.596C10.5934 7.77467 10.764 7.044 11.1054 6.404C11.4574 5.764 11.9374 5.268 12.5454 4.916C13.164 4.55333 13.8894 4.372 14.7214 4.372C15.5 4.372 16.188 4.54267 16.7854 4.884C17.3827 5.22533 17.8467 5.69467 18.1774 6.292C18.5187 6.87867 18.6894 7.53467 18.6894 8.26C18.6894 8.37733 18.684 8.5 18.6734 8.628C18.6734 8.756 18.668 8.88933 18.6574 9.028H12.6254C12.668 9.64667 12.8814 10.132 13.2654 10.484C13.66 10.836 14.1347 11.012 14.6894 11.012C15.1054 11.012 15.452 10.9213 15.7294 10.74C16.0174 10.548 16.2307 10.3027 16.3694 10.004H18.4494C18.3 10.5053 18.0494 10.964 17.6974 11.38C17.356 11.7853 16.9294 12.1053 16.4174 12.34C15.916 12.5747 15.3454 12.692 14.7054 12.692ZM14.7214 6.036C14.22 6.036 13.7774 6.18 13.3934 6.468C13.0094 6.74533 12.764 7.172 12.6574 7.748H16.6094C16.5774 7.22533 16.3854 6.80933 16.0334 6.5C15.6814 6.19067 15.244 6.036 14.7214 6.036ZM23.3479 12.692C22.6652 12.692 22.1052 12.5853 21.6679 12.372C21.2305 12.148 20.9052 11.8547 20.6919 11.492C20.4785 11.1293 20.3719 10.7293 20.3719 10.292C20.3719 9.556 20.6599 8.95867 21.2359 8.5C21.8119 8.04133 22.6759 7.812 23.8279 7.812H25.8439V7.62C25.8439 7.076 25.6892 6.676 25.3799 6.42C25.0705 6.164 24.6865 6.036 24.2279 6.036C23.8119 6.036 23.4492 6.13733 23.1399 6.34C22.8305 6.532 22.6385 6.82 22.5639 7.204H20.5639C20.6172 6.628 20.8092 6.12667 21.1399 5.7C21.4812 5.27333 21.9185 4.948 22.4519 4.724C22.9852 4.48933 23.5825 4.372 24.2439 4.372C25.3745 4.372 26.2652 4.65467 26.9159 5.22C27.5665 5.78533 27.8919 6.58533 27.8919 7.62V12.5H26.1479L25.9559 11.22C25.7212 11.6467 25.3905 11.9987 24.9639 12.276C24.5479 12.5533 24.0092 12.692 23.3479 12.692ZM23.8119 11.092C24.3985 11.092 24.8519 10.9 25.1719 10.516C25.5025 10.132 25.7105 9.65733 25.7959 9.092H24.0519C23.5079 9.092 23.1185 9.19333 22.8839 9.396C22.6492 9.588 22.5319 9.828 22.5319 10.116C22.5319 10.4253 22.6492 10.6653 22.8839 10.836C23.1185 11.0067 23.4279 11.092 23.8119 11.092ZM30.0463 12.5V4.564H31.8703L32.0623 6.052C32.3503 5.54 32.7396 5.13467 33.2303 4.836C33.7316 4.52667 34.3183 4.372 34.9903 4.372V6.532H34.4143C33.9663 6.532 33.5663 6.60133 33.2143 6.74C32.8623 6.87867 32.5849 7.11867 32.3823 7.46C32.1903 7.80133 32.0943 8.276 32.0943 8.884V12.5H30.0463ZM40.3374 12.692C39.5267 12.692 38.812 12.516 38.1934 12.164C37.5747 11.812 37.084 11.3213 36.7214 10.692C36.3694 10.0627 36.1934 9.34267 36.1934 8.532C36.1934 7.72133 36.3694 7.00133 36.7214 6.372C37.084 5.74267 37.5747 5.252 38.1934 4.9C38.812 4.548 39.5267 4.372 40.3374 4.372C41.3507 4.372 42.204 4.63867 42.8974 5.172C43.5907 5.69467 44.0334 6.42 44.2254 7.348H42.0654C41.9587 6.964 41.7454 6.66533 41.4254 6.452C41.116 6.228 40.748 6.116 40.3214 6.116C39.756 6.116 39.276 6.32933 38.8814 6.756C38.4867 7.18267 38.2894 7.77467 38.2894 8.532C38.2894 9.28933 38.4867 9.88133 38.8814 10.308C39.276 10.7347 39.756 10.948 40.3214 10.948C40.748 10.948 41.116 10.8413 41.4254 10.628C41.7454 10.4147 41.9587 10.1107 42.0654 9.716H44.2254C44.0334 10.612 43.5907 11.332 42.8974 11.876C42.204 12.42 41.3507 12.692 40.3374 12.692ZM46.2431 12.5V0.98H48.2911V5.78C48.5578 5.34267 48.9151 5.00133 49.3631 4.756C49.8218 4.5 50.3445 4.372 50.9311 4.372C51.9125 4.372 52.6698 4.68133 53.2031 5.3C53.7471 5.91867 54.0191 6.82533 54.0191 8.02V12.5H51.9871V8.212C51.9871 7.52933 51.8485 7.00667 51.5711 6.644C51.3045 6.28133 50.8778 6.1 50.2911 6.1C49.7151 6.1 49.2351 6.30267 48.8511 6.708C48.4778 7.11333 48.2911 7.67867 48.2911 8.404V12.5H46.2431Z" fill="black"/>
</svg>
