<svg width="112" height="17" viewBox="0 0 112 17" fill="none" xmlns="http://www.w3.org/2000/svg">
<path d="M4.26669 12.692C3.44535 12.692 2.72002 12.5533 2.09069 12.276C1.46135 11.988 0.965353 11.5827 0.602687 11.06C0.24002 10.5267 0.0533534 9.88133 0.0426868 9.124H2.20269C2.22402 9.64667 2.41069 10.0893 2.76269 10.452C3.12535 10.804 3.62135 10.98 4.25069 10.98C4.79469 10.98 5.22669 10.852 5.54669 10.596C5.86669 10.3293 6.02669 9.97733 6.02669 9.54C6.02669 9.08133 5.88269 8.724 5.59469 8.468C5.31735 8.212 4.94402 8.004 4.47469 7.844C4.00535 7.684 3.50402 7.51333 2.97069 7.332C2.10669 7.03333 1.44535 6.64933 0.986687 6.18C0.538687 5.71067 0.314687 5.08667 0.314687 4.308C0.30402 3.64667 0.458687 3.08133 0.778687 2.612C1.10935 2.132 1.55735 1.764 2.12269 1.508C2.68802 1.24133 3.33869 1.108 4.07469 1.108C4.82135 1.108 5.47735 1.24133 6.04269 1.508C6.61869 1.77467 7.06669 2.148 7.38669 2.628C7.71735 3.108 7.89335 3.67867 7.91469 4.34H5.72269C5.71202 3.94533 5.55735 3.59867 5.25869 3.3C4.97069 2.99067 4.56535 2.836 4.04269 2.836C3.59469 2.82533 3.21602 2.93733 2.90669 3.172C2.60802 3.396 2.45869 3.72667 2.45869 4.164C2.45869 4.53733 2.57602 4.836 2.81069 5.06C3.04535 5.27333 3.36535 5.45467 3.77069 5.604C4.17602 5.75333 4.64002 5.91333 5.16269 6.084C5.71735 6.276 6.22402 6.5 6.68269 6.756C7.14135 7.012 7.50935 7.35333 7.78669 7.78C8.06402 8.196 8.20269 8.73467 8.20269 9.396C8.20269 9.98267 8.05335 10.5267 7.75469 11.028C7.45602 11.5293 7.01335 11.9347 6.42669 12.244C5.84002 12.5427 5.12002 12.692 4.26669 12.692ZM10.1416 12.5V0.98H12.1896V5.78C12.4562 5.34267 12.8136 5.00133 13.2616 4.756C13.7202 4.5 14.2429 4.372 14.8296 4.372C15.8109 4.372 16.5682 4.68133 17.1016 5.3C17.6456 5.91867 17.9176 6.82533 17.9176 8.02V12.5H15.8856V8.212C15.8856 7.52933 15.7469 7.00667 15.4696 6.644C15.2029 6.28133 14.7762 6.1 14.1896 6.1C13.6136 6.1 13.1336 6.30267 12.7496 6.708C12.3762 7.11333 12.1896 7.67867 12.1896 8.404V12.5H10.1416ZM23.8839 12.692C23.1159 12.692 22.4226 12.516 21.8039 12.164C21.1959 11.812 20.7106 11.3267 20.3479 10.708C19.9959 10.0787 19.8199 9.35333 19.8199 8.532C19.8199 7.71067 20.0013 6.99067 20.3639 6.372C20.7266 5.74267 21.2119 5.252 21.8199 4.9C22.4386 4.548 23.1319 4.372 23.8999 4.372C24.6573 4.372 25.3399 4.548 25.9479 4.9C26.5666 5.252 27.0519 5.74267 27.4039 6.372C27.7666 6.99067 27.9479 7.71067 27.9479 8.532C27.9479 9.35333 27.7666 10.0787 27.4039 10.708C27.0519 11.3267 26.5666 11.812 25.9479 12.164C25.3293 12.516 24.6413 12.692 23.8839 12.692ZM23.8839 10.916C24.4173 10.916 24.8813 10.7187 25.2759 10.324C25.6706 9.91867 25.8679 9.32133 25.8679 8.532C25.8679 7.74267 25.6706 7.15067 25.2759 6.756C24.8813 6.35067 24.4226 6.148 23.8999 6.148C23.3559 6.148 22.8866 6.35067 22.4919 6.756C22.1079 7.15067 21.9159 7.74267 21.9159 8.532C21.9159 9.32133 22.1079 9.91867 22.4919 10.324C22.8866 10.7187 23.3506 10.916 23.8839 10.916ZM29.9791 16.02V4.564H31.8031L32.0271 5.7C32.2831 5.348 32.6191 5.03867 33.0351 4.772C33.4617 4.50533 34.0111 4.372 34.6831 4.372C35.4297 4.372 36.0964 4.55333 36.6831 4.916C37.2697 5.27867 37.7337 5.77467 38.0751 6.404C38.4164 7.03333 38.5871 7.748 38.5871 8.548C38.5871 9.348 38.4164 10.0627 38.0751 10.692C37.7337 11.3107 37.2697 11.8013 36.6831 12.164C36.0964 12.516 35.4297 12.692 34.6831 12.692C34.0857 12.692 33.5631 12.58 33.1151 12.356C32.6671 12.132 32.3044 11.8173 32.0271 11.412V16.02H29.9791ZM34.2511 10.9C34.9017 10.9 35.4404 10.6813 35.8671 10.244C36.2937 9.80667 36.5071 9.24133 36.5071 8.548C36.5071 7.85467 36.2937 7.284 35.8671 6.836C35.4404 6.388 34.9017 6.164 34.2511 6.164C33.5897 6.164 33.0457 6.388 32.6191 6.836C32.2031 7.27333 31.9951 7.83867 31.9951 8.532C31.9951 9.22533 32.2031 9.796 32.6191 10.244C33.0457 10.6813 33.5897 10.9 34.2511 10.9ZM40.6166 16.02V4.564H42.4406L42.6646 5.7C42.9206 5.348 43.2566 5.03867 43.6726 4.772C44.0992 4.50533 44.6486 4.372 45.3206 4.372C46.0672 4.372 46.7339 4.55333 47.3206 4.916C47.9072 5.27867 48.3712 5.77467 48.7126 6.404C49.0539 7.03333 49.2246 7.748 49.2246 8.548C49.2246 9.348 49.0539 10.0627 48.7126 10.692C48.3712 11.3107 47.9072 11.8013 47.3206 12.164C46.7339 12.516 46.0672 12.692 45.3206 12.692C44.7232 12.692 44.2006 12.58 43.7526 12.356C43.3046 12.132 42.9419 11.8173 42.6646 11.412V16.02H40.6166ZM44.8886 10.9C45.5392 10.9 46.0779 10.6813 46.5046 10.244C46.9312 9.80667 47.1446 9.24133 47.1446 8.548C47.1446 7.85467 46.9312 7.284 46.5046 6.836C46.0779 6.388 45.5392 6.164 44.8886 6.164C44.2272 6.164 43.6832 6.388 43.2566 6.836C42.8406 7.27333 42.6326 7.83867 42.6326 8.532C42.6326 9.22533 42.8406 9.796 43.2566 10.244C43.6832 10.6813 44.2272 10.9 44.8886 10.9ZM52.3581 3.332C51.9847 3.332 51.6754 3.22 51.4301 2.996C51.1954 2.772 51.0781 2.48933 51.0781 2.148C51.0781 1.80667 51.1954 1.52933 51.4301 1.316C51.6754 1.092 51.9847 0.98 52.3581 0.98C52.7314 0.98 53.0354 1.092 53.2701 1.316C53.5154 1.52933 53.6381 1.80667 53.6381 2.148C53.6381 2.48933 53.5154 2.772 53.2701 2.996C53.0354 3.22 52.7314 3.332 52.3581 3.332ZM51.3341 12.5V4.564H53.3821V12.5H51.3341ZM55.7197 12.5V4.564H57.5277L57.6877 5.908C57.933 5.43867 58.285 5.06533 58.7437 4.788C59.213 4.51067 59.7624 4.372 60.3917 4.372C61.373 4.372 62.1357 4.68133 62.6797 5.3C63.2237 5.91867 63.4957 6.82533 63.4957 8.02V12.5H61.4477V8.212C61.4477 7.52933 61.309 7.00667 61.0317 6.644C60.7544 6.28133 60.3224 6.1 59.7357 6.1C59.1597 6.1 58.685 6.30267 58.3117 6.708C57.949 7.11333 57.7677 7.67867 57.7677 8.404V12.5H55.7197ZM69.0141 10.132C68.6301 10.132 68.2727 10.0893 67.9421 10.004L67.3501 10.596C67.5314 10.692 67.7767 10.772 68.0861 10.836C68.3954 10.9 68.8967 10.964 69.5901 11.028C70.6461 11.124 71.4141 11.3747 71.8941 11.78C72.3741 12.1853 72.6141 12.7453 72.6141 13.46C72.6141 13.9293 72.4861 14.372 72.2301 14.788C71.9741 15.2147 71.5794 15.556 71.0461 15.812C70.5127 16.0787 69.8301 16.212 68.9981 16.212C67.8674 16.212 66.9554 15.9987 66.2621 15.572C65.5687 15.156 65.2221 14.5267 65.2221 13.684C65.2221 12.9693 65.5687 12.3507 66.2621 11.828C66.0487 11.732 65.8621 11.6307 65.7021 11.524C65.5527 11.4173 65.4194 11.3053 65.3021 11.188V10.82L66.6941 9.348C66.0754 8.804 65.7661 8.10533 65.7661 7.252C65.7661 6.71867 65.8941 6.23333 66.1501 5.796C66.4167 5.35867 66.7901 5.012 67.2701 4.756C67.7501 4.5 68.3314 4.372 69.0141 4.372C69.4621 4.372 69.8781 4.436 70.2621 4.564H73.2701V5.812L71.9101 5.908C72.1234 6.31333 72.2301 6.76133 72.2301 7.252C72.2301 7.78533 72.1021 8.27067 71.8461 8.708C71.5901 9.14533 71.2167 9.492 70.7261 9.748C70.2461 10.004 69.6754 10.132 69.0141 10.132ZM69.0141 8.564C69.4301 8.564 69.7714 8.452 70.0381 8.228C70.3154 8.004 70.4541 7.684 70.4541 7.268C70.4541 6.852 70.3154 6.532 70.0381 6.308C69.7714 6.084 69.4301 5.972 69.0141 5.972C68.5767 5.972 68.2247 6.084 67.9581 6.308C67.6914 6.532 67.5581 6.852 67.5581 7.268C67.5581 7.684 67.6914 8.004 67.9581 8.228C68.2247 8.452 68.5767 8.564 69.0141 8.564ZM67.0941 13.476C67.0941 13.8707 67.2754 14.164 67.6381 14.356C68.0114 14.5587 68.4647 14.66 68.9981 14.66C69.5101 14.66 69.9261 14.5533 70.2461 14.34C70.5661 14.1373 70.7261 13.86 70.7261 13.508C70.7261 13.22 70.6194 12.98 70.4061 12.788C70.2034 12.596 69.7927 12.4787 69.1741 12.436C68.7367 12.404 68.3314 12.356 67.9581 12.292C67.6487 12.4627 67.4247 12.6493 67.2861 12.852C67.1581 13.0547 67.0941 13.2627 67.0941 13.476ZM84.0959 12.692C82.9653 12.692 81.9946 12.452 81.1839 11.972C80.3733 11.4813 79.7493 10.804 79.3119 9.94C78.8746 9.06533 78.6559 8.05733 78.6559 6.916C78.6559 5.77467 78.8746 4.76667 79.3119 3.892C79.7493 3.01733 80.3733 2.33467 81.1839 1.844C81.9946 1.35333 82.9653 1.108 84.0959 1.108C85.4399 1.108 86.5386 1.444 87.3919 2.116C88.2559 2.77733 88.7946 3.71067 89.0079 4.916H86.7519C86.6133 4.308 86.3146 3.83333 85.8559 3.492C85.4079 3.14 84.8106 2.964 84.0639 2.964C83.0293 2.964 82.2186 3.316 81.6319 4.02C81.0453 4.724 80.7519 5.68933 80.7519 6.916C80.7519 8.14267 81.0453 9.108 81.6319 9.812C82.2186 10.5053 83.0293 10.852 84.0639 10.852C84.8106 10.852 85.4079 10.692 85.8559 10.372C86.3146 10.0413 86.6133 9.588 86.7519 9.012H89.0079C88.7946 10.164 88.2559 11.0653 87.3919 11.716C86.5386 12.3667 85.4399 12.692 84.0959 12.692ZM93.7088 12.692C93.0261 12.692 92.4661 12.5853 92.0288 12.372C91.5915 12.148 91.2661 11.8547 91.0528 11.492C90.8395 11.1293 90.7328 10.7293 90.7328 10.292C90.7328 9.556 91.0208 8.95867 91.5968 8.5C92.1728 8.04133 93.0368 7.812 94.1888 7.812H96.2048V7.62C96.2048 7.076 96.0501 6.676 95.7408 6.42C95.4315 6.164 95.0475 6.036 94.5888 6.036C94.1728 6.036 93.8101 6.13733 93.5008 6.34C93.1915 6.532 92.9995 6.82 92.9248 7.204H90.9248C90.9781 6.628 91.1701 6.12667 91.5008 5.7C91.8421 5.27333 92.2795 4.948 92.8128 4.724C93.3461 4.48933 93.9435 4.372 94.6048 4.372C95.7355 4.372 96.6261 4.65467 97.2768 5.22C97.9275 5.78533 98.2528 6.58533 98.2528 7.62V12.5H96.5088L96.3168 11.22C96.0821 11.6467 95.7515 11.9987 95.3248 12.276C94.9088 12.5533 94.3701 12.692 93.7088 12.692ZM94.1728 11.092C94.7595 11.092 95.2128 10.9 95.5328 10.516C95.8635 10.132 96.0715 9.65733 96.1568 9.092H94.4128C93.8688 9.092 93.4795 9.19333 93.2448 9.396C93.0101 9.588 92.8928 9.828 92.8928 10.116C92.8928 10.4253 93.0101 10.6653 93.2448 10.836C93.4795 11.0067 93.7888 11.092 94.1728 11.092ZM100.407 12.5V4.564H102.231L102.423 6.052C102.711 5.54 103.101 5.13467 103.591 4.836C104.093 4.52667 104.679 4.372 105.351 4.372V6.532H104.775C104.327 6.532 103.927 6.60133 103.575 6.74C103.223 6.87867 102.946 7.11867 102.743 7.46C102.551 7.80133 102.455 8.276 102.455 8.884V12.5H100.407ZM110.487 12.5C109.655 12.5 108.988 12.2973 108.487 11.892C107.986 11.4867 107.735 10.7667 107.735 9.732V6.276H106.375V4.564H107.735L107.975 2.436H109.783V4.564H111.927V6.276H109.783V9.748C109.783 10.132 109.863 10.3987 110.023 10.548C110.194 10.6867 110.482 10.756 110.887 10.756H111.879V12.5H110.487Z" fill="black"/>
</svg>
